<?xml version="1.0" encoding="utf-8"?>
<!-- Generator: Adobe Illustrator 23.0.1, SVG Export Plug-In . SVG Version: 6.00 Build 0)  -->
<svg version="1.1" id="Layer_1" xmlns="http://www.w3.org/2000/svg" xmlns:xlink="http://www.w3.org/1999/xlink" x="0px" y="0px"
	 viewBox="0 0 512 512" style="enable-background:new 0 0 512 512;" xml:space="preserve">
<style type="text/css">
	.st0{fill:#E20714;}
</style>
<g>
	<path class="st0" d="M390,218.9c2.3,0,4.2-1.8,4.2-4.1c0-2.2-1.9-4.1-4.2-4.1c-2.4,0-4.3,1.9-4.3,4.1
		C385.8,217.1,387.7,218.9,390,218.9z"/>
	<path class="st0" d="M95.8,291.2L95.8,291.2l0,14.8c0,0,33.4-6,39.8-44.6h-15C120.6,261.4,118.3,283.7,95.8,291.2z"/>
	<path class="st0" d="M154,282.4c0,0,0.3,5.1-7.4,6.7v0v4.5c0,0,10.8-0.9,12.3-10v-24.4h-4.8C154.1,259.2,154.5,278.5,154,282.4z"/>
	<path class="st0" d="M83.7,246.2c-4.1,0-7.5,3.3-7.5,7.3c0,4,3.4,7.2,7.5,7.2c4.1,0,7.5-3.2,7.5-7.2
		C91.1,249.5,87.7,246.2,83.7,246.2z"/>
	<path class="st0" d="M168.5,240.9h57.7v-17.3h-6.6v9.8h-51.2v-3.3h-6.7v10.7c0,0,0,8.1-11.5,4.1c0,0,1.4,6.3,9.6,5.6
		C159.7,250.5,166.5,249.5,168.5,240.9z"/>
	<path class="st0" d="M475,234h-1.1v6.8h6.7v-8.1c-1.2-4.7-5.5-5.1-6.7-5.1v5C474.7,233,475,234,475,234z"/>
	<path class="st0" d="M193.5,246.9c0,2.3,1.9,4.1,4.2,4.1c2.3,0,4.2-1.9,4.2-4.1c0-2.3-1.9-4.1-4.2-4.1
		C195.3,242.8,193.5,244.7,193.5,246.9z"/>
	<polygon class="st0" points="337.5,220.8 337.5,220.8 337.5,220.8 	"/>
	<path class="st0" d="M326.5,218.9c2.3,0,4.2-1.9,4.2-4.1c0-2.3-1.9-4.1-4.2-4.1c-2.4,0-4.2,1.8-4.2,4.1
		C322.3,217.1,324.2,218.9,326.5,218.9z"/>
	<path class="st0" d="M327,238.4c0,1.5,0.2,2.4,0.2,2.4h10.3v-6.2h-2.9c0.1-2.4,1.5-4.3,2.9-5.8v0l0,0v-8
		c-9.3,4.4-10.5,13.2-10.5,17.4V238.4z"/>
	<path class="st0" d="M340.5,226.5v8.2h-3v6.2h136.3V234h-1.1c0.4-1.3,0.8-1.4,0.8-1.4c0.1,0,0.2,0,0.3,0.1v-5h-0.3
		c-7.4-0.3-7.5,6.5-7.5,6.5h-12.3c0.9-8-6.2-8.6-6.2-8.6h-35.4c3.2-5.6,3-13.9,3-13.9h-5.9c1,9.3-5.6,13.9-5.6,13.9l-0.3,6.4H445
		c2,0.7,0.4,2.3,0.4,2.3h-55.5v-9.3h-6.4v9.3H372v-8.8h-6.4v9.1h-19.4v-16.1c-3.6,0.4-6.4,1.3-8.8,2.5v8
		C339,227.3,340.5,226.5,340.5,226.5z"/>
	<polygon class="st0" points="83.7,260.8 83.7,260.8 83.7,260.8 	"/>
	<path class="st0" d="M336.9,218.9c2.4,0,4.2-1.9,4.2-4.1c0-2.3-1.9-4.1-4.2-4.1c-2.3,0-4.2,1.8-4.2,4.1
		C332.7,217.1,334.6,218.9,336.9,218.9z"/>
	<path class="st0" d="M76.3,292C61.4,290.9,54,279.4,54,279.4H37c18.5,34.6,54.2,27.2,54.2,27.2V262H76.3V292z"/>
	<path class="st0" d="M378.5,218.9c2.3,0,4.2-1.8,4.2-4.1c0-2.2-1.9-4.1-4.2-4.1c-2.4,0-4.2,1.9-4.2,4.1
		C374.3,217.1,376.1,218.9,378.5,218.9z"/>
	<path class="st0" d="M47.8,245.1h86.3c0,0-6.2-37.4-47.7-40.3c0,0-31.3-1.7-45.4,21.7h19.6c0,0,25.2-19.7,49.4,3.7H37.5
		c0,0-12.5,19.5-2.9,45.2h16.1C50.7,275.4,41.1,258,47.8,245.1z"/>
	<path class="st0" d="M372.8,246.9c0-2.3-1.9-4.1-4.2-4.1c-2.4,0-4.3,1.9-4.3,4.1c0,2.2,1.9,4.1,4.3,4.1
		C370.9,251,372.8,249.2,372.8,246.9z"/>
	<path class="st0" d="M172.9,272.6c1.9-2.4,3.6-3.6,3.6-3.6v10.3h-3.6v0h-3.6C170.2,276.8,171.4,274.6,172.9,272.6L172.9,272.6
		C172.9,272.6,172.9,272.6,172.9,272.6l0-8.2l0,0c-4.8,4.4-10.3,12.8-11.9,28.3h4.8c0,0-0.1-3.3,1.5-8.4h5.6v0h3.6v8.4h5.4v-33.3
		c0,0-4.3,0.7-9,5V272.6z"/>
	<polygon class="st0" points="369.5,285.7 369.5,285.7 369.5,285.7 	"/>
	<path class="st0" d="M324.4,258.6c-9.8,0-17.7,7.8-17.7,17.4c0,9.5,7.9,17.3,17.7,17.3c9.8,0,17.8-7.7,17.8-17.3
		C342.1,266.4,334.2,258.6,324.4,258.6z M324.4,288.5L324.4,288.5c-7.2,0-13-5.7-13-12.6l0,0c0-7,5.8-12.7,12.9-12.7h0.1
		c7.1,0.1,12.9,5.7,12.9,12.7C337.3,282.8,331.5,288.5,324.4,288.5z"/>
	<path class="st0" d="M354.3,277.1c11.6-8.1,10.1-17.9,10.1-17.9H360c-2.3,13.5-10,13.9-10,13.9v-13.9h-4.4v33.1h4.9v-10.9l0,0h0.7
		c5.3,10.7,14.2,11.1,14.2,11.1v-4.6C359.5,287.8,354.3,277.1,354.3,277.1z"/>
	<path class="st0" d="M467.8,277.8h13.1V273h-13.1c0,0,1.1-10.2,13.1-10.4l-0.1-4.6c0,0-16.4-0.4-18.5,15.9h0
		c0,0-0.8,18.2,18.7,18.9v-4.7C481,288.1,469.3,287.9,467.8,277.8z"/>
	<path class="st0" d="M453.6,280.3c7.1-4.2,6.6-11.1,6.6-11.1c-0.9-6.2-4.7-9-8.5-10.1v0c-4.1-1.2-8.3-0.6-8.3-0.6V292v0h5v-8.7h0.5
		c0.8,1.4,1.7,2.8,2.7,4v0c4.1,4.5,9.1,4.8,9.1,4.8v-4.4C453,283.7,453.6,280.3,453.6,280.3z M451.8,275.4L451.8,275.4
		c-1.6,0.9-3.2,1.2-3.2,1.2v-13c1.3-0.1,2.4,0.1,3.2,0.5v0c3.2,1.4,3.2,5.5,3.2,5.5C455.1,272.7,453.4,274.5,451.8,275.4z"/>
	<path class="st0" d="M423.7,258.3L423.7,258.3c-9.8,0-17.7,7.8-17.7,17.4c0,9.5,7.9,17.2,17.6,17.2h0.1c9.8,0,17.7-7.8,17.7-17.2
		C441.4,266,433.5,258.3,423.7,258.3z M423.6,288.1c-7.1,0-12.9-5.7-12.9-12.6c0-7,5.8-12.7,12.9-12.7c7.1,0,12.9,5.7,12.9,12.7
		C436.6,282.4,430.8,288.1,423.6,288.1z"/>
	<path class="st0" d="M395.8,257.6c0,0-5.3-0.1-11.2,3.5l2.4,4.6v0c0,0,3-2.3,6.4-2.4V292h5.3v-28.9c0,0,2.8-0.3,6.6,2.7l1.4-4.5
		C406.7,261.3,405.3,258.2,395.8,257.6z"/>
	<path class="st0" d="M382.3,274c0,0-4.6-2-7.3-3.8c0,0-4.5-3.7,2-6.9c0,0,3.3-0.6,5.3,1.3l0.6-4.8c0,0-2.3-3-8.3-1
		c0,0-5.3,1.5-6.2,7.6c0,0-0.6,3.7,3,7.4c0,0,2.7,2.1,6.5,3.6c0,0,3.5,0.9,3,4.9c0,0-0.2,3.6-3.8,5c0,0-3.1,1-7.8-1.7l-0.4,4.9
		c0,0,3.4,2.6,7.1,2.1c0,0,9.1-0.7,10.1-9.9C386.3,282.8,386.8,277.6,382.3,274z"/>
	<rect x="205.8" y="258.9" class="st0" width="5.2" height="33.8"/>
	<path class="st0" d="M211,246.9c0-2.2-1.9-4.1-4.3-4.1c-2.3,0-4.2,1.9-4.2,4.1c0,2.3,1.9,4.1,4.2,4.1
		C209.1,251,211,249.2,211,246.9z"/>
	<path class="st0" d="M225.2,280.8c0,0,6.9-3.5,6.4-11.6c0,0-0.7-7.8-8.2-9.8c-0.8-0.3-1.8-0.4-2.9-0.4h-5.4l0,0v33.6h4.8v-9.4
		c0,0,0.1,0.1,0.6-0.1c0,0,0.8,2.2,2.8,4.5c1.9,2.1,4.8,4.4,9.2,5.1v-4.7C232.6,287.9,227,286.3,225.2,280.8z M223.5,276.1
		c-1.7,0.8-3.4,0.8-3.4,0.8v-13c1.4,0.1,2.5,0.3,3.4,0.7c3.3,1.5,3.4,5,3.4,5C227,273.4,225.2,275.3,223.5,276.1z"/>
	<path class="st0" d="M195.6,280.8c0,0,6.9-3.5,6.4-11.7c0,0-0.7-7.7-8.2-9.8c-0.9-0.3-1.8-0.4-2.9-0.4h-5.3v0v33.6h4.8v-9.4
		c0,0,0.1,0.1,0.6-0.1c0,0,0.8,2.1,2.8,4.3c1.9,2.2,4.8,4.4,9.2,5.1v-4.6C203,287.9,197.4,286.4,195.6,280.8z M193.9,276.1
		c-1.7,0.8-3.4,0.8-3.4,0.8v-13c1.4,0.1,2.5,0.3,3.4,0.7c3.2,1.5,3.3,5,3.3,5C197.4,273.5,195.6,275.3,193.9,276.1z"/>
	<path class="st0" d="M296.5,246.9c0,2.2,1.8,4.1,4.2,4.1c2.3,0,4.2-1.9,4.2-4.1c0-2.3-1.9-4.1-4.2-4.1
		C298.3,242.8,296.5,244.7,296.5,246.9z"/>
	<path class="st0" d="M265.2,275.3c2.8-4,0.9-9.4,0.9-9.4c-1.2-2.9-3.6-4.5-6-5.4c-3.9-1.4-8.1-0.9-8.1-0.9h0l0.2,33.3
		c2.7,0.1,5.8-0.2,5.8-0.2c0.8-0.1,1.5-0.1,2.1-0.3c6-1.5,7.3-7.1,7.3-7.1c0.2-1,0.3-1.9,0.3-2.7v-1.1
		C267.7,277,265.2,275.3,265.2,275.3z M260.1,287.2c-1.5,0.8-3.1,0.9-3.1,0.9v-23.3c1.3,0.1,2.4,0.5,3.1,1c2.2,1.5,2.1,4.1,2.1,4.1
		c0.2,1.7-1,3.3-2.1,4.3c-1,1-2.1,1.6-2.1,1.6c0.7,0.2,1.5,0.5,2.1,0.9c2.6,1.6,3.1,4.5,3.1,4.5
		C263.4,284.7,261.8,286.4,260.1,287.2z"/>
	<path class="st0" d="M318.8,233.8H316c0,0,1-7.2-7.2-10.4c0,0-11.6-1.8-16-3.8c0,0-2.6-1-4.7-4.4c0,0-3.1,3.7,0.4,9.4
		c0,0,0.2,2.5,8.5,3.3c0,0,6,0.4,9.4,2.4c0,0,2.2,1.4,1.7,3.2h0l-57.2-0.2v-3.5h-6.7v11.9c0,0-2.6,7.1-11.4,1.5c0,0,1.4,7.4,9.6,6.6
		c0,0,6.7-0.4,8.7-9h67.7V233.8z"/>
	<path class="st0" d="M287.5,258.4L287.5,258.4c-9.7,0-17.7,7.7-17.7,17.3c0,9.5,8,17.3,17.7,17.3c9.8,0,17.8-7.8,17.8-17.3
		C305.2,266.2,297.3,258.4,287.5,258.4z M287.5,288.3c-7.2,0-13-5.7-13-12.6v0c0-7.1,5.8-12.7,13-12.7c7.1,0,12.9,5.7,12.9,12.7
		C300.4,282.6,294.6,288.3,287.5,288.3z"/>
</g>
</svg>
